<svg width="50" height="50" viewBox="0 0 50 50" fill="none" xmlns="http://www.w3.org/2000/svg">
<path d="M29.1667 29.6916V34.0458C27.2811 33.3791 25.2631 33.1746 23.2821 33.4495C21.3011 33.7243 19.415 34.4705 17.7822 35.6254C16.1493 36.7802 14.8174 38.31 13.8983 40.0862C12.9791 41.8624 12.4996 43.8333 12.5 45.8333L8.33334 45.8312C8.3327 43.2872 8.91443 40.7768 10.034 38.4924C11.1535 36.208 12.7811 34.2102 14.7921 32.6521C16.8031 31.094 19.1441 30.0169 21.6357 29.5033C24.1274 28.9898 26.7035 29.0535 29.1667 29.6895V29.6916ZM25 27.0833C18.0938 27.0833 12.5 21.4895 12.5 14.5833C12.5 7.677 18.0938 2.08325 25 2.08325C31.9063 2.08325 37.5 7.677 37.5 14.5833C37.5 21.4895 31.9063 27.0833 25 27.0833ZM25 22.9166C29.6042 22.9166 33.3333 19.1874 33.3333 14.5833C33.3333 9.97909 29.6042 6.24992 25 6.24992C20.3958 6.24992 16.6667 9.97909 16.6667 14.5833C16.6667 19.1874 20.3958 22.9166 25 22.9166ZM37.5 35.4166V29.1666H41.6667V35.4166H47.9167V39.5833H41.6667V45.8333H37.5V39.5833H31.25V35.4166H37.5Z" fill="url(#paint0_linear_48_534)"/>
<defs>
<linearGradient id="paint0_linear_48_534" x1="28.125" y1="2.08325" x2="28.125" y2="45.8333" gradientUnits="userSpaceOnUse">
<stop stop-color="#FFEE2D"/>
<stop offset="1" stop-color="#E8BA1F"/>
</linearGradient>
</defs>
</svg>
