<svg width="529" height="444" viewBox="0 0 529 444" fill="none" xmlns="http://www.w3.org/2000/svg">
<rect width="411.489" height="411.489" rx="50" transform="matrix(0.999914 -0.0130896 -0.188924 0.981992 110.327 39.3875)" fill="url(#paint0_linear_48_208)"/>
<rect width="411.489" height="411.489" rx="50" transform="matrix(0.999914 -0.0130896 -0.188924 0.981992 84.2609 5.92041)" fill="url(#paint1_linear_48_208)"/>
<g clip-path="url(#clip0_48_208)">
<path d="M300.582 86.5868L279.177 55.643L246.553 86.5245L267.957 117.468L300.582 86.5868Z" fill="#171717"/>
<path d="M132.676 178.408L122.035 232.695L248.542 129.331L225.82 102.242L132.676 178.408Z" fill="#171717"/>
<path d="M212.13 219.262L222.062 168.272L117.816 254.621L139.172 279.805L212.13 219.262Z" fill="#171717"/>
<path d="M251.719 348.159L149.948 228.026L117.797 254.722L219.567 374.856L251.719 348.159Z" fill="#171717"/>
<path d="M267.953 256.186L234.631 288.596L215.093 257.64L221.163 226.09L243.031 162.116L264.108 151.944L274.308 169.319L265.058 217.4L267.953 256.186Z" fill="#171717"/>
<path d="M288.57 95.8797L274.602 80.0875L254.968 95.9258L268.936 111.718L288.57 95.8797Z" fill="#171717"/>
<path d="M127.818 202.635L122.035 232.694L248.67 128.664L236.958 115.005L127.818 202.635Z" fill="#171717"/>
<path d="M210.839 219.015L215.895 192.738L147.443 252.459L156.992 263.793L210.839 219.015Z" fill="#171717"/>
<path d="M251.743 348.034L160.665 240.795L144.129 254.502L235.207 361.742L251.743 348.034Z" fill="#171717"/>
<path d="M222.769 230.195L244.947 251.926L272.494 224.987L262.339 257.014L234.421 290.033C223.083 274.234 226.286 274.192 214.948 258.394L222.769 230.195Z" fill="#171717"/>
<path d="M240.127 89.5566L280.668 55.6235L307.641 87.8495L267.101 121.783L240.127 89.5566Z" fill="#171717"/>
<path d="M382.667 175.135L372.421 229.417L285.147 128.852L318.434 101.029L382.667 175.135Z" fill="#171717"/>
<path d="M287.052 218.281L296.739 167.295L368.202 251.344L337.024 277.215L287.052 218.281Z" fill="#171717"/>
<path d="M197.447 349.358L346.167 225.457L368.163 251.55L219.605 376.29L197.447 349.358Z" fill="#171717"/>
<path d="M213.537 258.137L234.358 290.034L269.178 257.409L275.285 225.665L287.574 161.789L265.587 131.843L232 162.516L219.589 226.678L213.537 258.137Z" fill="#171717"/>
<path d="M249.659 100.746L275.077 80.0811L292.219 99.6875L266.801 120.352L249.659 100.746Z" fill="#171717"/>
<path d="M378.204 199.357L372.421 229.417L285.276 128.185L302.314 114.15L378.204 199.357Z" fill="#171717"/>
<path d="M288.444 217.999L293.5 191.722L339.26 249.948L325.291 261.59L288.444 217.999Z" fill="#171717"/>
<path d="M213.276 335.412L330.468 238.572L341.795 251.955L223.602 347.55L213.276 335.412Z" fill="#171717"/>
<path d="M276.806 217.759L241.507 252.873L221.016 219.259L213.293 259.402L234.081 291.472C251.508 275.073 251.508 275.073 268.935 258.674L276.806 217.759Z" fill="#171717"/>
</g>
<defs>
<linearGradient id="paint0_linear_48_208" x1="13.0631" y1="-7.40909e-06" x2="392.71" y2="411.489" gradientUnits="userSpaceOnUse">
<stop stop-color="#FFF151" stop-opacity="0.5"/>
<stop offset="1" stop-color="#FFD449" stop-opacity="0.5"/>
</linearGradient>
<linearGradient id="paint1_linear_48_208" x1="13.0631" y1="-7.40909e-06" x2="392.71" y2="411.489" gradientUnits="userSpaceOnUse">
<stop stop-color="#FFF151"/>
<stop offset="1" stop-color="#FFD449"/>
</linearGradient>
<clipPath id="clip0_48_208">
<rect width="250.408" height="326.555" fill="white" transform="matrix(0.999914 -0.0130896 -0.188924 0.981992 155.787 57.2583)"/>
</clipPath>
</defs>
</svg>
