<svg width="50" height="50" viewBox="0 0 50 50" fill="none" xmlns="http://www.w3.org/2000/svg">
<path d="M31.25 4.16676C32.7131 4.16659 34.1504 4.55162 35.4175 5.28314C36.6846 6.01467 37.7368 7.0669 38.4682 8.33404C39.1996 9.60118 39.5846 11.0386 39.5843 12.5017C39.584 13.9647 39.1986 15.402 38.4666 16.6688L47.9166 16.6668V20.8334H43.75V41.6668C43.75 42.2193 43.5305 42.7492 43.1398 43.1399C42.7491 43.5306 42.2192 43.7501 41.6666 43.7501H8.33331C7.78078 43.7501 7.25087 43.5306 6.86017 43.1399C6.46947 42.7492 6.24998 42.2193 6.24998 41.6668V20.8334H2.08331V16.6668L11.5333 16.6688C10.4997 14.879 10.1681 12.769 10.6029 10.7484C11.0376 8.72778 12.2078 6.94086 13.8861 5.73458C15.5644 4.5283 17.6311 3.98874 19.6849 4.22067C21.7387 4.45261 23.633 5.43949 25 6.98968C25.7804 6.10089 26.7418 5.38921 27.8197 4.90234C28.8976 4.41547 30.0672 4.16468 31.25 4.16676V4.16676ZM22.9166 20.8334H10.4166V39.5834H22.9166V20.8334ZM39.5833 20.8334H27.0833V39.5834H39.5833V20.8334ZM18.75 8.33343C17.6688 8.32859 16.628 8.74423 15.8476 9.49255C15.0671 10.2409 14.6082 11.2633 14.5676 12.3437C14.527 13.4242 14.9081 14.4781 15.6302 15.2828C16.3523 16.0876 17.3589 16.5801 18.4375 16.6563L18.75 16.6668H22.9166V12.5001C22.9167 11.5044 22.5602 10.5416 21.9116 9.78605C21.2631 9.03051 20.3654 8.53219 19.3812 8.38134L19.0604 8.34384L18.75 8.33343ZM31.25 8.33343C30.1988 8.3331 29.1863 8.73011 28.4155 9.44488C27.6447 10.1597 27.1726 11.1394 27.0937 12.1876L27.0833 12.5001V16.6668H31.25C32.3012 16.6671 33.3137 16.2701 34.0845 15.5553C34.8552 14.8405 35.3274 13.8608 35.4062 12.8126L35.4166 12.5001C35.4166 11.395 34.9777 10.3352 34.1963 9.55382C33.4149 8.77241 32.355 8.33343 31.25 8.33343V8.33343Z" fill="url(#paint0_linear_48_461)"/>
<defs>
<linearGradient id="paint0_linear_48_461" x1="25" y1="4.16675" x2="25" y2="43.7501" gradientUnits="userSpaceOnUse">
<stop stop-color="#FFEE2D"/>
<stop offset="1" stop-color="#E8BA1F"/>
</linearGradient>
</defs>
</svg>
