<svg width="50" height="50" viewBox="0 0 50 50" fill="none" xmlns="http://www.w3.org/2000/svg">
<path d="M25 8.33325C37.6562 8.33325 47.9166 13.9291 47.9166 20.8333V29.1666C47.9166 36.0707 37.6562 41.6666 25 41.6666C12.5687 41.6666 2.44998 36.2687 2.09373 29.5353L2.08331 29.1666V20.8333C2.08331 13.9291 12.3437 8.33325 25 8.33325ZM25 33.3332C17.25 33.3332 10.3958 31.2353 6.24998 28.0207V29.1666C6.24998 33.0874 14.3396 37.4999 25 37.4999C35.4375 37.4999 43.4125 33.2707 43.7396 29.4124L43.75 29.1666L43.7521 28.0207C39.6062 31.2332 32.7521 33.3332 25 33.3332ZM25 12.4999C14.3396 12.4999 6.24998 16.9124 6.24998 20.8333C6.24998 24.7541 14.3396 29.1666 25 29.1666C35.6604 29.1666 43.75 24.7541 43.75 20.8333C43.75 16.9124 35.6604 12.4999 25 12.4999Z" fill="url(#paint0_linear_48_475)"/>
<defs>
<linearGradient id="paint0_linear_48_475" x1="25" y1="8.33325" x2="25" y2="41.6666" gradientUnits="userSpaceOnUse">
<stop stop-color="#FFEE2D"/>
<stop offset="1" stop-color="#E8BA1F"/>
</linearGradient>
</defs>
</svg>
