<svg width="50" height="50" viewBox="0 0 50 50" fill="none" xmlns="http://www.w3.org/2000/svg">
<path d="M25 45.8334C13.4937 45.8334 4.16666 36.5063 4.16666 25.0001C4.16666 13.4938 13.4937 4.16675 25 4.16675C36.5062 4.16675 45.8333 13.4938 45.8333 25.0001C45.8333 36.5063 36.5062 45.8334 25 45.8334ZM25 41.6668C29.4203 41.6668 33.6595 39.9108 36.7851 36.7852C39.9107 33.6596 41.6667 29.4204 41.6667 25.0001C41.6667 20.5798 39.9107 16.3406 36.7851 13.215C33.6595 10.0894 29.4203 8.33342 25 8.33342C20.5797 8.33342 16.3405 10.0894 13.2149 13.215C10.0893 16.3406 8.33332 20.5798 8.33332 25.0001C8.33332 29.4204 10.0893 33.6596 13.2149 36.7852C16.3405 39.9108 20.5797 41.6668 25 41.6668V41.6668ZM14.5833 27.0834H33.3333V31.2501H25V37.5001L14.5833 27.0834ZM25 18.7501V12.5001L35.4167 22.9167H16.6667V18.7501H25Z" fill="url(#paint0_linear_48_528)"/>
<defs>
<linearGradient id="paint0_linear_48_528" x1="25" y1="4.16675" x2="25" y2="45.8334" gradientUnits="userSpaceOnUse">
<stop stop-color="#FFEE2D"/>
<stop offset="1" stop-color="#E8BA1F"/>
</linearGradient>
</defs>
</svg>
