<svg width="40" height="40" viewBox="0 0 40 40" fill="none" xmlns="http://www.w3.org/2000/svg">
<path d="M21.6667 33.2299C25.0289 32.8021 28.102 31.1101 30.2614 28.4979C32.4208 25.8856 33.5046 22.5491 33.2923 19.1665C33.0801 15.7839 31.5878 12.6091 29.1188 10.2872C26.6498 7.96537 23.3893 6.67079 20 6.66659C16.6066 6.66406 13.34 7.95548 10.8656 10.2777C8.39126 12.5999 6.89544 15.7782 6.68295 19.165C6.47045 22.5517 7.55727 25.8921 9.72195 28.5054C11.8866 31.1187 14.9663 32.8083 18.3334 33.2299V23.3333H15V19.9999H18.3334V17.2433C18.3334 15.0149 18.5667 14.2066 19 13.3916C19.4269 12.5852 20.0866 11.9261 20.8934 11.4999C21.53 11.1583 22.3217 10.9533 23.705 10.8649C24.2534 10.8299 24.9634 10.8733 25.835 10.9983V14.1649H25C23.4717 14.1649 22.84 14.2366 22.4634 14.4383C22.2386 14.5538 22.0556 14.7368 21.94 14.9616C21.74 15.3383 21.6667 15.7116 21.6667 17.2416V19.9999H25.8334L25 23.3333H21.6667V33.2299ZM20 36.6666C10.795 36.6666 3.33337 29.2049 3.33337 19.9999C3.33337 10.7949 10.795 3.33325 20 3.33325C29.205 3.33325 36.6667 10.7949 36.6667 19.9999C36.6667 29.2049 29.205 36.6666 20 36.6666Z" fill="#F7F7F7"/>
</svg>
