<svg width="40" height="40" viewBox="0 0 40 40" fill="none" xmlns="http://www.w3.org/2000/svg">
<path d="M35.1667 18.3334C35.1667 26.7097 28.3764 33.5001 20 33.5001C11.6237 33.5001 4.83337 26.7097 4.83337 18.3334C4.83337 9.9571 11.6237 3.16675 20 3.16675C28.3764 3.16675 35.1667 9.9571 35.1667 18.3334Z" stroke="#F7F7F7" stroke-width="3"/>
<path d="M20.4727 16.0256L20.4727 16.0253C20.4896 15.1926 20.8676 14.411 21.5061 13.8444C22.1431 13.2793 22.9905 12.9699 23.8641 12.97L20.4727 16.0256ZM20.4727 16.0256L20.4448 17.4436L20.4448 17.4439L20.4444 17.4434C20.4432 17.4458 20.4392 17.4519 20.4297 17.4593C20.4201 17.4668 20.4059 17.4745 20.3871 17.4795C20.3684 17.4845 20.3477 17.4861 20.3271 17.4836L18.7714 17.2926C18.7714 17.2926 18.7714 17.2926 18.7714 17.2926C18.7713 17.2926 18.7713 17.2926 18.7712 17.2926C16.8246 17.0527 14.9433 16.2414 13.1184 14.8673L12.4833 14.3891L12.3274 15.1688C12.0118 16.7475 12.1551 18.1301 12.7854 19.3399C13.4116 20.5417 14.4899 21.518 15.9437 22.3442L15.9438 22.3442L17.6857 23.3336L17.6857 23.3336C17.701 23.3423 17.7083 23.3512 17.711 23.3555C17.7113 23.3559 17.7115 23.3563 17.7117 23.3566C17.7098 23.3599 17.7043 23.3676 17.6916 23.376L17.691 23.3763L16.1037 24.4243L14.844 25.2559L16.3511 25.3408C17.3229 25.3955 18.2599 25.3577 19.0518 25.2157L19.0523 25.2156C21.4931 24.7752 23.5613 23.7177 25.0198 22.0511C26.4809 20.3816 27.2955 18.1403 27.2955 15.3992C27.2955 15.1475 27.1699 14.8739 27.0327 14.6527C26.8811 14.408 26.662 14.1422 26.3788 13.8959C25.8094 13.4006 24.9634 12.9701 23.8642 12.97L23.8641 13.47C25.7864 13.47 26.7955 14.9685 26.7955 15.3992C26.7955 20.6759 23.6677 23.8747 18.9636 24.7235C18.4535 24.815 17.8716 24.8615 17.2518 24.8646M20.4727 16.0256L17.2518 24.8646M17.1018 24.3645L17.9665 23.7936C18.0455 23.7416 18.1092 23.6729 18.152 23.5935C18.1949 23.5141 18.2155 23.4264 18.2122 23.3381C18.2088 23.2498 18.1816 23.1636 18.1329 23.087C18.0841 23.0105 18.0154 22.9459 17.9326 22.8989L17.1018 24.3645ZM17.1018 24.3645C16.8755 24.363 16.6434 24.3556 16.4073 24.3424L16.3792 24.8416M17.1018 24.3645L16.3792 24.8416M16.3792 24.8416L16.6547 25.2588L17.2518 24.8646M16.3792 24.8416L17.2518 24.8646M18.9169 16.4982L19.4673 16.5666L19.4784 16.0121C19.4936 15.2537 19.7559 14.5111 20.2399 13.8774C20.7245 13.2429 21.4109 12.7449 22.2184 12.4529C23.026 12.1609 23.9133 12.0901 24.7674 12.251C25.6214 12.4118 26.3977 12.7957 27.0014 13.3479L27.146 13.4802L27.342 13.479C27.4191 13.4785 27.5073 13.4811 27.6039 13.484C27.858 13.4917 28.1705 13.5011 28.493 13.4597C28.7336 13.4288 28.9908 13.3713 29.2775 13.2724C29.0697 14.0604 28.868 14.5059 28.4005 15.0852L28.2896 15.2227V15.3992C28.2896 18.7188 27.165 21.1497 25.4965 22.8562C23.8193 24.5716 21.5628 25.5842 19.2657 25.9985C17.713 26.2784 15.7776 26.1909 14.0561 25.8703C13.1984 25.7106 12.4069 25.4955 11.7544 25.2468C11.6743 25.2163 11.5969 25.1855 11.5223 25.1545C11.7728 25.1142 12.0406 25.0657 12.3174 25.0075C13.3286 24.7949 14.5123 24.4423 15.4047 23.852L16.0687 23.4128L15.3848 23.0054C15.3436 22.9809 15.2993 22.9548 15.2522 22.927C14.497 22.4817 13.0237 21.6129 12.0671 20.0267C11.1351 18.4815 10.6515 16.1756 12.0406 12.761C13.599 14.2948 15.1975 15.3785 16.8385 15.987L16.8385 15.987C17.4281 16.2056 17.8126 16.319 18.1267 16.3852C18.3639 16.4352 18.562 16.4576 18.7498 16.4788C18.8061 16.4851 18.8616 16.4914 18.9169 16.4982Z" fill="#F7F7F7" stroke="#F7F7F7"/>
</svg>
