<svg width="40" height="40" viewBox="0 0 40 40" fill="none" xmlns="http://www.w3.org/2000/svg">
<path d="M21.7722 22.6493C21.6237 22.6834 21.4743 22.7137 21.324 22.7401C20.5087 22.8848 19.6716 22.8818 18.8574 22.7314C18.7148 22.7052 18.5129 22.6589 18.2527 22.5934L17.4 23.6384C15.2953 23.5747 14.4953 22.2451 14.4953 22.2451C14.4953 19.2934 15.8666 16.9005 15.8666 16.9005C17.2379 15.9114 18.5426 15.9384 18.5426 15.9384L18.9157 16.3967C18.9501 16.3922 18.9847 16.3893 19.0194 16.388C19.7307 16.2991 20.4515 16.3021 21.162 16.3967L21.5713 15.9384C21.5713 15.9384 22.8768 15.9114 24.2472 16.9014C24.2472 16.9014 25.6194 19.2934 25.6194 22.2451C25.6194 22.2451 24.8092 23.5738 22.7046 23.6384L21.7722 22.6484V22.6493ZM18.2185 19.5239C17.662 19.5239 17.2222 19.9167 17.2222 20.3969C17.2222 20.8771 17.6713 21.2699 18.2185 21.2699C18.774 21.2699 19.2138 20.8771 19.2138 20.3969C19.2231 19.9167 18.775 19.5239 18.2185 19.5239ZM21.7814 19.5239C21.2259 19.5239 20.7861 19.9167 20.7861 20.3969C20.7861 20.8771 21.2351 21.2699 21.7814 21.2699C22.3379 21.2699 22.7777 20.8771 22.7777 20.3969C22.7777 19.9167 22.3379 19.5239 21.7814 19.5239ZM28.3333 30.0001L23.7129 25.635H26.4814V13.4128H13.5185V25.635H23.7064L24.2342 27.381H13.5185C13.0273 27.381 12.5563 27.1971 12.209 26.8696C11.8617 26.5422 11.6666 26.0981 11.6666 25.635V13.4128C11.6666 12.9497 11.8617 12.5056 12.209 12.1781C12.5563 11.8507 13.0273 11.6667 13.5185 11.6667H26.4814C26.9726 11.6667 27.4436 11.8507 27.7909 12.1781C28.1382 12.5056 28.3333 12.9497 28.3333 13.4128V30.0001Z" fill="#F7F7F7"/>
<circle cx="20" cy="19.9999" r="15.1667" stroke="#F7F7F7" stroke-width="3"/>
</svg>
