<svg width="40" height="40" viewBox="0 0 40 40" fill="none" xmlns="http://www.w3.org/2000/svg">
<path d="M15.2827 25.3839C15.025 25.2141 14.8033 24.9976 14.5439 24.6911C14.4093 24.5282 14.2758 24.3643 14.1436 24.1995C13.7459 23.7112 13.4951 23.4862 13.2357 23.3937C13.0212 23.3176 12.8461 23.1603 12.7489 22.9566C12.6516 22.7529 12.6403 22.5193 12.7173 22.3073C12.7943 22.0952 12.9533 21.9222 13.1595 21.8261C13.3656 21.73 13.6019 21.7187 13.8164 21.7948C14.4623 22.0241 14.8996 22.4189 15.4888 23.1432C15.4081 23.0439 15.7809 23.5058 15.8608 23.6009C16.024 23.7936 16.1442 23.9108 16.2387 23.9728C16.414 24.0891 16.743 24.1392 17.2266 24.0916C17.2463 23.7673 17.3073 23.4523 17.4001 23.1619C14.8506 22.5454 13.4075 20.9203 13.4075 17.7311C13.4075 16.6782 13.7253 15.7307 14.3163 14.9359C14.129 14.1768 14.1574 13.259 14.5757 12.2256C14.6232 12.1087 14.6964 12.0038 14.79 11.9183C14.8836 11.8328 14.9952 11.769 15.1169 11.7315C15.1865 11.7111 15.226 11.7017 15.2955 11.6916C15.9853 11.5871 16.9594 11.8359 18.229 12.6222C18.9856 12.4473 19.7601 12.3596 20.5371 12.3606C21.3205 12.3606 22.0988 12.4489 22.8427 12.6222C24.1114 11.83 25.0872 11.5812 25.7821 11.6916C25.8551 11.7026 25.917 11.717 25.9694 11.734C26.0886 11.7729 26.1978 11.8371 26.2892 11.9222C26.3807 12.0073 26.4521 12.1112 26.4985 12.2265C26.9169 13.259 26.9452 14.1768 26.7579 14.9351C27.3515 15.7298 27.6667 16.6715 27.6667 17.7311C27.6667 20.9211 26.2288 22.5412 23.6793 23.1585C23.7867 23.5108 23.8425 23.9048 23.8425 24.3302C23.8426 25.0989 23.8392 25.8677 23.8322 26.6363C24.0251 26.6779 24.1976 26.784 24.3207 26.9365C24.4438 27.0891 24.51 27.279 24.5081 27.4742C24.5062 27.6693 24.4363 27.8579 24.3102 28.0081C24.1842 28.1583 24.0096 28.261 23.8159 28.2989C22.8375 28.4924 22.1125 27.8471 22.1125 27.004L22.1142 26.6253L22.1185 26.0267C22.1228 25.4255 22.1245 24.8906 22.1245 24.3302C22.1245 23.7384 21.9673 23.3521 21.7595 23.1755C21.1917 22.6915 21.4794 21.7702 22.2233 21.6879C24.7719 21.4051 25.9488 20.4295 25.9488 17.7311C25.9488 16.9202 25.6808 16.2503 25.1645 15.6899C25.0557 15.5721 24.9827 15.4264 24.9539 15.2695C24.925 15.1125 24.9414 14.9507 25.0013 14.8026C25.1439 14.4511 25.2049 13.99 25.0838 13.4322L25.0752 13.4347C24.6534 13.5528 24.1217 13.8083 23.4792 14.2405C23.3756 14.31 23.2578 14.3563 23.1342 14.3761C23.0106 14.3959 22.8841 14.3887 22.7636 14.3551C22.0386 14.1567 21.2895 14.057 20.5371 14.0588C19.7726 14.0588 19.015 14.1599 18.3106 14.356C18.1905 14.3893 18.0646 14.3964 17.9414 14.3768C17.8183 14.3571 17.701 14.3112 17.5976 14.2422C16.9517 13.8117 16.4174 13.557 15.9931 13.4381C15.8694 13.9926 15.9303 14.4519 16.0721 14.8026C16.132 14.9507 16.1486 15.1124 16.1199 15.2693C16.0912 15.4262 16.0184 15.572 15.9097 15.6899C15.3969 16.2452 15.1255 16.9279 15.1255 17.7311C15.1255 20.4244 16.3031 21.406 18.838 21.6879C19.5811 21.7702 19.8697 22.6872 19.3053 23.1721C19.1404 23.3147 18.9368 23.7936 18.9368 24.3302V27.0048C18.9368 27.842 18.2196 28.4695 17.2532 28.3022C17.0571 28.2682 16.8791 28.1679 16.7496 28.0186C16.62 27.8692 16.547 27.68 16.5429 27.4833C16.5389 27.2865 16.6041 27.0945 16.7273 26.9401C16.8506 26.7856 17.0243 26.6782 17.2188 26.6363V25.7957C16.4372 25.8475 15.7912 25.721 15.2827 25.3839V25.3839Z" fill="#F7F7F7"/>
<circle cx="20" cy="19.9999" r="15.1667" stroke="#F7F7F7" stroke-width="3"/>
</svg>
