<svg width="40" height="40" viewBox="0 0 40 40" fill="none" xmlns="http://www.w3.org/2000/svg">
<path d="M19.1422 14.8807L19.8248 11.5099C19.8745 11.265 19.9697 11.0327 20.1049 10.8263C20.2402 10.62 20.4129 10.4436 20.6132 10.3073C20.8135 10.1709 21.0374 10.0773 21.2722 10.0318C21.507 9.98625 21.748 9.98967 21.9815 10.0419L24.8863 10.6901C25.1541 10.3782 25.5125 10.1677 25.906 10.0912C26.2994 10.0148 26.706 10.0766 27.0625 10.2672C27.419 10.4578 27.7056 10.7664 27.8779 11.1453C28.0501 11.5241 28.0983 11.952 28.0151 12.3625C27.9318 12.773 27.7218 13.1433 27.4175 13.4158C27.1131 13.6883 26.7316 13.8479 26.332 13.8698C25.9323 13.8917 25.537 13.7747 25.2073 13.5369C24.8775 13.2991 24.6318 12.9539 24.5082 12.5547L21.6035 11.9065L20.9981 14.895C22.6196 15.0256 24.231 15.5909 25.6907 16.5156C26.1244 16.2626 26.6128 16.1306 27.1091 16.1321C27.6054 16.1337 28.093 16.2687 28.5253 16.5244C28.9576 16.78 29.3201 17.1477 29.5783 17.5923C29.8364 18.0369 29.9815 18.5435 29.9996 19.0637V19.0837C30.0066 19.5499 29.9113 20.0116 29.7211 20.4331C29.5309 20.8546 29.2508 21.2246 28.9026 21.5145C28.901 21.5537 28.8986 21.5928 28.8954 21.6318C28.8954 25.443 24.8509 28.3333 19.9893 28.3333C15.1432 28.3333 11.1659 25.4506 11.1687 21.7052C11.1647 21.6477 11.1617 21.5902 11.1596 21.5327C10.5725 21.0705 10.1743 20.3921 10.0452 19.6343C9.91613 18.8764 10.0657 18.0954 10.4638 17.4487C10.8619 16.8019 11.479 16.3374 12.1906 16.1489C12.9023 15.9603 13.6556 16.0617 14.2988 16.4326C15.7668 15.5047 17.4305 14.9716 19.1422 14.8807V14.8807ZM27.582 20.1485C27.9529 19.955 28.1855 19.5575 28.1828 19.1237C28.1733 18.9056 28.1042 18.695 27.9836 18.517C27.863 18.339 27.696 18.2013 27.5027 18.1202C27.3094 18.0392 27.098 18.0183 26.8936 18.06C26.6893 18.1017 26.5007 18.2042 26.3505 18.3554L25.8188 18.8892L25.2099 18.4555C23.742 17.4088 22.0724 16.8111 20.4565 16.7739H19.5421C17.838 16.8015 16.2238 17.3459 14.7823 18.3706L14.1798 18.7996L13.649 18.2753C13.5345 18.1626 13.3981 18.0774 13.2491 18.0255C13.1001 17.9735 12.9421 17.9562 12.7861 17.9747C12.6301 17.9931 12.4798 18.0469 12.3456 18.1323C12.2114 18.2177 12.0965 18.3327 12.0088 18.4693C11.9211 18.6059 11.8628 18.7608 11.8379 18.9234C11.813 19.0859 11.822 19.2523 11.8644 19.4108C11.9068 19.5693 11.9816 19.7163 12.0835 19.8415C12.1854 19.9668 12.3121 20.0673 12.4547 20.1361L13.03 20.4126L12.981 21.0751C12.9691 21.2371 12.9691 21.3982 12.9837 21.6318C12.9837 24.2152 16.0339 26.4268 19.9893 26.4268C23.962 26.4268 27.0776 24.1999 27.0803 21.5593C27.0922 21.3982 27.0922 21.2363 27.0803 21.0751L27.0331 20.4345L27.582 20.1485V20.1485ZM15.414 20.3001C15.414 19.9208 15.5576 19.5571 15.8133 19.289C16.069 19.0208 16.4158 18.8702 16.7773 18.8702C17.1389 18.8702 17.4857 19.0208 17.7413 19.289C17.997 19.5571 18.1406 19.9208 18.1406 20.3001C18.1406 20.6793 17.997 21.043 17.7413 21.3112C17.4857 21.5793 17.1389 21.73 16.7773 21.73C16.4158 21.73 16.069 21.5793 15.8133 21.3112C15.5576 21.043 15.414 20.6793 15.414 20.3001ZM21.7761 20.3001C21.7761 19.9208 21.9198 19.5571 22.1754 19.289C22.4311 19.0208 22.7779 18.8702 23.1395 18.8702C23.501 18.8702 23.8478 19.0208 24.1035 19.289C24.3591 19.5571 24.5028 19.9208 24.5028 20.3001C24.5028 20.6793 24.3591 21.043 24.1035 21.3112C23.8478 21.5793 23.501 21.73 23.1395 21.73C22.7779 21.73 22.4311 21.5793 22.1754 21.3112C21.9198 21.043 21.7761 20.6793 21.7761 20.3001ZM19.9729 25.1646C18.7032 25.1646 17.4581 24.8119 16.4447 24.0112C16.3835 23.9337 16.352 23.835 16.3565 23.7344C16.361 23.6339 16.4011 23.5387 16.469 23.4675C16.5368 23.3964 16.6276 23.3543 16.7234 23.3496C16.8193 23.3449 16.9134 23.3779 16.9873 23.4421C17.8462 24.1027 18.9168 24.3858 19.9584 24.3858C21 24.3858 22.0761 24.1237 22.9431 23.4716C22.9933 23.4203 23.0554 23.3838 23.1233 23.3656C23.1912 23.3475 23.2624 23.3484 23.3298 23.3683C23.3973 23.3882 23.4585 23.4264 23.5074 23.479C23.5563 23.5316 23.5912 23.5968 23.6084 23.668C23.6232 23.7394 23.621 23.8134 23.6022 23.8837C23.5833 23.954 23.5483 24.0184 23.5003 24.0712C22.8786 24.831 21.2426 25.1646 19.9729 25.1646V25.1646Z" fill="#F7F7F7"/>
<circle cx="20" cy="19.9999" r="15.1667" stroke="#F7F7F7" stroke-width="3"/>
</svg>
