<svg width="40" height="40" viewBox="0 0 40 40" fill="none" xmlns="http://www.w3.org/2000/svg">
<path d="M27.606 14.7865C27.53 14.4761 27.314 14.2417 27.067 14.1699C26.63 14.0417 24.5 13.7501 20 13.7501C15.5 13.7501 13.372 14.0417 12.931 14.1699C12.687 14.2407 12.471 14.4751 12.394 14.7865C12.285 15.2282 12 17.0792 12 20.0001C12 22.9209 12.285 24.7709 12.394 25.2147C12.47 25.524 12.686 25.7584 12.932 25.8292C13.372 25.9584 15.5 26.2501 20 26.2501C24.5 26.2501 26.629 25.9584 27.069 25.8303C27.313 25.7595 27.529 25.5251 27.606 25.2136C27.715 24.772 28 22.9167 28 20.0001C28 17.0834 27.715 15.2292 27.606 14.7865ZM29.543 14.2688C30 16.1251 30 20.0001 30 20.0001C30 20.0001 30 23.8751 29.543 25.7313C29.289 26.7574 28.546 27.5647 27.605 27.8376C25.896 28.3334 20 28.3334 20 28.3334C20 28.3334 14.107 28.3334 12.395 27.8376C11.45 27.5605 10.708 26.7542 10.457 25.7313C10 23.8751 10 20.0001 10 20.0001C10 20.0001 10 16.1251 10.457 14.2688C10.711 13.2428 11.454 12.4355 12.395 12.1626C14.107 11.6667 20 11.6667 20 11.6667C20 11.6667 25.896 11.6667 27.605 12.1626C28.55 12.4397 29.292 13.2459 29.543 14.2688V14.2688ZM18 23.6459V16.3542L24 20.0001L18 23.6459Z" fill="#F7F7F7"/>
<circle cx="20" cy="19.9999" r="15.1667" stroke="#F7F7F7" stroke-width="3"/>
</svg>
