<svg width="40" height="40" viewBox="0 0 40 40" fill="none" xmlns="http://www.w3.org/2000/svg">
<path d="M12.5926 11.6667H27.4074C27.6529 11.6667 27.8885 11.7643 28.0621 11.9379C28.2357 12.1116 28.3333 12.3471 28.3333 12.5927V27.4075C28.3333 27.6531 28.2357 27.8886 28.0621 28.0622C27.8885 28.2359 27.6529 28.3334 27.4074 28.3334H12.5926C12.347 28.3334 12.1115 28.2359 11.9378 28.0622C11.7642 27.8886 11.6666 27.6531 11.6666 27.4075V12.5927C11.6666 12.3471 11.7642 12.1116 11.9378 11.9379C12.1115 11.7643 12.347 11.6667 12.5926 11.6667V11.6667ZM13.5185 13.5186V26.4816H26.4814V13.5186H13.5185ZM24.9074 23.6482L25.7916 24.5316V24.5779H21.2351V24.5316L22.1648 23.6482C22.2574 23.5556 22.3037 23.463 22.3037 23.3232V17.8371C22.3037 17.6038 22.3037 17.2788 22.3509 17.0001L19.2824 24.6714H19.2361L16.074 17.6038C16.0277 17.4186 15.9814 17.4186 15.9351 17.326V21.9742C15.8879 22.3001 15.9351 22.5788 16.074 22.8584L17.3296 24.5316V24.5779H13.9814V24.5316L15.237 22.8112C15.3759 22.5334 15.4222 22.2075 15.3759 21.9279V16.8149C15.3759 16.5825 15.3296 16.3029 15.1444 16.1177L14.3064 14.9538V14.9075H17.5611L20.2574 20.9056L22.6296 14.9075H25.7916V14.9538L24.9083 15.9769C24.8157 16.0695 24.7694 16.2093 24.7694 16.3019V23.3695C24.7694 23.4621 24.8157 23.6019 24.9083 23.6482H24.9074Z" fill="#F7F7F7"/>
<circle cx="20" cy="19.9999" r="15.1667" stroke="#F7F7F7" stroke-width="3"/>
</svg>
