<svg width="50" height="50" viewBox="0 0 50 50" fill="none" xmlns="http://www.w3.org/2000/svg">
<path d="M25 45.8334C13.4937 45.8334 4.16663 36.5063 4.16663 25.0001C4.16663 13.4938 13.4937 4.16675 25 4.16675C36.5062 4.16675 45.8333 13.4938 45.8333 25.0001C45.8333 36.5063 36.5062 45.8334 25 45.8334ZM25 41.6667C29.4202 41.6667 33.6595 39.9108 36.7851 36.7852C39.9107 33.6596 41.6666 29.4204 41.6666 25.0001C41.6666 20.5798 39.9107 16.3406 36.7851 13.215C33.6595 10.0894 29.4202 8.33341 25 8.33341C20.5797 8.33341 16.3405 10.0894 13.2148 13.215C10.0892 16.3406 8.33329 20.5798 8.33329 25.0001C8.33329 29.4204 10.0892 33.6596 13.2148 36.7852C16.3405 39.9108 20.5797 41.6667 25 41.6667ZM22.9166 33.3334H16.6666V16.6667H22.9166V12.5001H27.0833V16.6667H29.1666C30.1339 16.6667 31.082 16.9361 31.9048 17.4446C32.7276 17.9531 33.3925 18.6807 33.8251 19.5458C34.2577 20.411 34.4408 21.3795 34.3539 22.3428C34.267 23.3062 33.9136 24.2263 33.3333 25.0001C33.9136 25.7739 34.267 26.694 34.3539 27.6573C34.4408 28.6207 34.2577 29.5892 33.8251 30.4543C33.3925 31.3195 32.7276 32.047 31.9048 32.5556C31.082 33.0641 30.1339 33.3334 29.1666 33.3334H27.0833V37.5001H22.9166V33.3334ZM20.8333 27.0834V29.1667H29.1666C29.4429 29.1667 29.7078 29.057 29.9032 28.8617C30.0985 28.6663 30.2083 28.4013 30.2083 28.1251C30.2083 27.8488 30.0985 27.5839 29.9032 27.3885C29.7078 27.1932 29.4429 27.0834 29.1666 27.0834H20.8333ZM20.8333 20.8334V22.9167H29.1666C29.4429 22.9167 29.7078 22.807 29.9032 22.6117C30.0985 22.4163 30.2083 22.1513 30.2083 21.8751C30.2083 21.5988 30.0985 21.3339 29.9032 21.1385C29.7078 20.9432 29.4429 20.8334 29.1666 20.8334H20.8333Z" fill="#FFEE2D"/>
</svg>
