<svg width="40" height="40" viewBox="0 0 40 40" fill="none" xmlns="http://www.w3.org/2000/svg">
<path d="M20 33.3333C23.5363 33.3333 26.9276 31.9285 29.4281 29.428C31.9286 26.9275 33.3334 23.5361 33.3334 19.9999C33.3334 16.4637 31.9286 13.0723 29.4281 10.5718C26.9276 8.07134 23.5363 6.66659 20 6.66659C16.4638 6.66659 13.0724 8.07134 10.572 10.5718C8.07147 13.0723 6.66671 16.4637 6.66671 19.9999C6.66671 23.5361 8.07147 26.9275 10.572 29.428C13.0724 31.9285 16.4638 33.3333 20 33.3333V33.3333ZM20 36.6666C10.795 36.6666 3.33337 29.2049 3.33337 19.9999C3.33337 10.7949 10.795 3.33325 20 3.33325C29.205 3.33325 36.6667 10.7949 36.6667 19.9999C36.6667 29.2049 29.205 36.6666 20 36.6666ZM14.8167 21.9499L10.6534 20.6516C9.75337 20.3766 9.74837 19.7566 10.855 19.3116L27.0767 13.0449C28.0184 12.6616 28.5517 13.1466 28.2467 14.3616L25.485 27.3949C25.2917 28.3233 24.7334 28.5449 23.9584 28.1166L19.7067 24.9699L17.725 26.8833C17.5217 27.0799 17.3567 27.2483 17.0434 27.2899C16.7317 27.3333 16.475 27.2399 16.2867 26.7233L14.8367 21.9383L14.8167 21.9516V21.9499Z" fill="#F7F7F7"/>
</svg>
